<?xml version="1.0" encoding="UTF-8"?>
<svg width="23px" height="22px" viewBox="0 0 23 22" version="1.1" xmlns="http://www.w3.org/2000/svg" xmlns:xlink="http://www.w3.org/1999/xlink">
    <!-- Generator: Sketch 55.2 (78181) - https://sketchapp.com -->
    <title>Group 8</title>
    <desc>Created with Sketch.</desc>
    <g id="Page-1" stroke="none" stroke-width="1" fill="none" fill-rule="evenodd">
        <g id="todo_hover_states" transform="translate(-803.000000, -291.000000)" fill="#000000">
            <g id="Group-8" transform="translate(803.214286, 291.000000)">
                <path d="M9.672,13.03125 L12.4065,13.03125 C12.797125,13.03125 13.109625,12.71875 13.109625,12.328125 L13.109625,10.296875 C13.109625,9.90625 12.797125,9.59375 12.4065,9.59375 L9.672,9.59375 C9.281375,9.59375 8.968875,9.90625 8.968875,10.296875 L8.968875,12.328125 C8.968875,12.71875 9.281375,13.03125 9.672,13.03125 Z" id="Fill-1"></path>
                <path d="M15.1405,17.797 L17.875,17.797 C18.265625,17.797 18.578125,17.4845 18.578125,17.093875 L18.578125,15.062625 C18.578125,14.672 18.265625,14.3595 17.875,14.3595 L15.1405,14.3595 C14.749875,14.3595 14.437375,14.672 14.437375,15.062625 L14.437375,17.093875 C14.437375,17.562625 14.749875,17.797 15.1405,17.797 Z" id="Fill-2"></path>
                <path d="M15.1405,13.03125 L17.875,13.03125 C18.265625,13.03125 18.578125,12.71875 18.578125,12.328125 L18.578125,10.296875 C18.578125,9.90625 18.265625,9.59375 17.875,9.59375 L15.1405,9.59375 C14.749875,9.59375 14.437375,9.90625 14.437375,10.296875 L14.437375,12.328125 C14.437375,12.71875 14.749875,13.03125 15.1405,13.03125 Z" id="Fill-3"></path>
                <path d="M4.203,17.797 L6.9375,17.797 C7.328125,17.797 7.640625,17.4845 7.640625,17.093875 L7.640625,15.062625 C7.640625,14.672 7.328125,14.3595 6.9375,14.3595 L4.203,14.3595 C3.812375,14.3595 3.499875,14.672 3.499875,15.062625 L3.499875,17.093875 C3.499875,17.562625 3.812375,17.797 4.203,17.797 Z" id="Fill-4"></path>
                <path d="M4.203,13.03125 L6.9375,13.03125 C7.328125,13.03125 7.640625,12.71875 7.640625,12.328125 L7.640625,10.296875 C7.640625,9.90625 7.328125,9.59375 6.9375,9.59375 L4.203,9.59375 C3.812375,9.59375 3.499875,9.90625 3.499875,10.296875 L3.499875,12.328125 C3.499875,12.71875 3.812375,13.03125 4.203,13.03125 Z" id="Fill-5"></path>
                <path d="M9.672,17.797 L12.4065,17.797 C12.797125,17.797 13.109625,17.4845 13.109625,17.093875 L13.109625,15.062625 C13.109625,14.672 12.797125,14.3595 12.4065,14.3595 L9.672,14.3595 C9.281375,14.3595 8.968875,14.672 8.968875,15.062625 L8.968875,17.093875 C8.968875,17.562625 9.281375,17.797 9.672,17.797 Z" id="Fill-6"></path>
                <path d="M20.6095,0.062563 L1.4690025,0.062563 C0.68775175,0.062563 0.06275175,0.687563 0.06275175,1.390688 L0.06275175,20.531188 C0.06275175,21.312437 0.68775175,21.937437 1.4690025,21.937437 L20.6095,21.937437 C21.39075,21.937437 22.01575,21.312437 22.01575,20.531188 L22.01575,1.390688 C21.937625,0.687563 21.312625,0.062563 20.6095,0.062563 Z M13.7345,2.797063 C14.125125,2.797063 14.437625,3.109563 14.437625,3.500188 C14.437625,3.890813 14.125125,4.203313 13.7345,4.203313 C13.343875,4.203313 13.031375,3.890813 13.031375,3.500188 C13.031375,3.109563 13.343875,2.797063 13.7345,2.797063 Z M8.26575,2.797063 C8.656375,2.797063 8.968875,3.109563 8.968875,3.500188 C8.968875,3.890813 8.656375,4.203313 8.26575,4.203313 C7.875125,4.203313 7.562625,3.890813 7.562625,3.500188 C7.562625,3.109563 7.875125,2.797063 8.26575,2.797063 Z M20.6095,19.906563 C20.6095,20.297188 20.297,20.609688 19.906375,20.609688 L2.093875,20.609688 C1.70325,20.609688 1.39075,20.297188 1.39075,19.906563 L1.39075,6.859563 L20.53125,6.859563 L20.53125,19.906563 L20.6095,19.906563 Z" id="Fill-7"></path>
            </g>
        </g>
    </g>
</svg>