<?xml version="1.0" encoding="UTF-8"?>
<svg width="40px" height="28px" viewBox="0 0 40 28" version="1.1" xmlns="http://www.w3.org/2000/svg" xmlns:xlink="http://www.w3.org/1999/xlink">
    <!-- Generator: Sketch 55.2 (78181) - https://sketchapp.com -->
    <title>icon / todo</title>
    <desc>Created with Sketch.</desc>
    <g id="Page-1" stroke="none" stroke-width="1" fill="none" fill-rule="evenodd">
        <g id="todo_1" transform="translate(-327.000000, -364.000000)" fill="#000000">
            <g id="icon-/-todo" transform="translate(322.000000, 352.500000)">
                <g id="Fill-2">
                    <path d="M34.9127935,19.2559683 L29.7550384,19.2559683 L18.2211001,7.72203004 C14.5259728,4.02523188 9.00320336,9.54950078 12.6983307,13.2447995 L17.5480514,18.0962339 C16.4502237,18.7020634 15.7205807,19.8082453 15.5967243,21.1052028 C13.6956081,21.2859449 12.2814775,22.7184633 12.1041114,24.5994866 C8.77549783,24.9141101 7.40305257,28.9119679 9.71600949,31.2250105 L17.0544252,38.56514 C25.5088766,47.0178772 39.749109,40.9130988 39.7474338,29.1664498 L39.749109,24.0939503 C39.749109,21.4263469 37.578559,19.255797 34.9126693,19.255797 L34.9127935,19.2559683 Z M16.1946709,9.75017297 L26.5337442,20.09096 C25.9563618,20.4842372 25.471047,21.0013537 25.1095886,21.5987862 L14.7289584,11.218156 C13.8102106,10.301079 15.2778509,8.83339581 16.1949708,9.75047286 L16.1946709,9.75017297 Z M23.8376936,24.3833056 C24.8033107,25.3505935 23.3222609,26.7998546 22.3716813,25.8509887 L18.7334483,22.2127557 C17.7377132,21.2170206 19.2371851,19.792865 20.194448,20.7434017 L23.8376936,24.3833056 Z M16.7053482,24.2377111 L20.3435812,27.8759442 C21.3208942,28.8532572 19.8381735,30.3008903 18.8775689,29.3452982 L15.237665,25.7037234 C14.2770604,24.7431189 15.7447436,23.2754357 16.7053482,24.2377111 Z M14.2921408,31.7449246 L11.7450521,29.1978358 C10.7626838,28.2137967 12.2286961,26.7477843 13.2127352,27.7318235 L15.759824,30.2772414 C16.7488757,31.2713057 15.2996146,32.7523555 14.2921408,31.7449246 Z M36.8814717,29.166047 C36.8814717,38.4490637 25.6705625,43.1214188 19.0835964,36.5378796 L16.9414936,34.394106 C17.6209257,34.0108709 18.2752953,33.4335014 18.6702562,32.3842137 C20.7052539,32.8862798 23.220511,31.681347 23.4801338,28.9819547 C23.7997741,28.9518325 24.1110688,28.8865626 24.4106204,28.7811326 L24.4122956,30.868012 C24.4106204,31.6562201 25.0482431,32.2971801 25.8347804,32.3022355 C26.3200952,33.4787212 27.0296881,34.5614684 27.9366973,35.4701913 C29.2236298,36.7571238 31.3188634,34.7991133 29.9650116,33.4435478 C29.6169199,33.0971313 29.3207099,32.7071786 29.0579596,32.2971801 C31.4946015,32.2335854 33.456125,30.2839462 33.456125,27.8925883 L33.456125,24.9137374 C33.456125,23.0076086 30.5893874,23.0076086 30.5893874,24.9137374 L30.5877166,27.8925883 C30.5877166,28.7444169 29.8463348,29.4372587 28.9342703,29.4372587 L27.280824,29.4372587 L27.277478,24.093569 C27.277478,23.0091509 28.1610954,22.122149 29.2472272,22.122149 L34.913946,22.122149 C36.0000778,22.122149 36.8836952,23.0074372 36.8836952,24.093569 L36.8814717,29.166047 Z" id="Fill-1" transform="translate(24.158011, 24.500000) scale(-1, 1) rotate(-45.000000) translate(-24.158011, -24.500000) "></path>
                </g>
            </g>
        </g>
    </g>
</svg>