<?xml version="1.0" encoding="UTF-8"?>
<svg width="26px" height="36px" viewBox="0 0 26 36" version="1.1" xmlns="http://www.w3.org/2000/svg" xmlns:xlink="http://www.w3.org/1999/xlink">
    <!-- Generator: Sketch 55.2 (78181) - https://sketchapp.com -->
    <title>icon / todo copy</title>
    <desc>Created with Sketch.</desc>
    <g id="Page-1" stroke="none" stroke-width="1" fill="none" fill-rule="evenodd">
        <g id="todo_1" transform="translate(-333.000000, -662.000000)" fill="#000000" stroke="#000000" stroke-width="1.2">
            <g id="icon-/-done" transform="translate(322.000000, 655.500000)">
                <path d="M32.3951114,24.3109912 C32.2266699,24.3109912 32.0596218,24.3221277 31.8953747,24.3444008 C31.9176478,24.1801359 31.9287844,24.0144812 31.9287844,23.8474438 C31.9287844,22.235443 30.9097821,20.8196948 29.3924329,20.3255175 C28.6936284,20.0986101 27.6273003,19.8396793 26.386957,19.8396793 L26.3632905,19.8396793 C26.7795298,19.1547732 27.3655791,18.2471362 28.0783177,17.3033279 C29.4884709,15.4379485 29.3576121,13.5810507 27.7303017,12.3351837 C26.9939002,11.7714076 25.5712028,11.1574902 23.6277786,12.4771755 C23.645875,12.356067 23.6653648,12.2307782 23.6862445,12.0929738 C24.0509528,9.72785782 22.5377732,8.33862346 20.9786576,8.04746976 C19.2344082,7.72172686 17.7100743,9.12630648 17.2995012,10.6116536 C17.1213166,11.2547933 16.8777025,12.2793549 16.6173748,13.5461408 C16.2401223,13.4250323 15.7612689,13.3609963 15.1139241,13.4138957 C13.756656,13.5252611 12.1293314,14.5150055 12.0096269,16.9372119 C11.8648519,19.8661397 13.375234,27.8275006 15.0401556,32.8359145 C15.2531433,33.6391352 15.5454873,34.4479153 15.9310788,35.2553411 C17.7351983,39.0307169 20.7630899,41.0573894 25.1870581,41.4554538 C25.4849614,41.4819029 25.8148738,41.5 26.1726329,41.5 C28.5502931,41.5 32.0901448,40.7273914 34.5904317,36.7642087 C36.2748467,34.0956086 36.8567265,29.7369629 35.9142723,26.8414625 C35.420095,25.3296727 34.0057366,24.3106704 32.3951256,24.3106704 L32.3951114,24.3109912 Z M18.7597101,11.0194862 C18.9880074,10.1939924 19.8664149,9.38660216 20.7002477,9.54112388 C21.5271313,9.69425219 22.4124952,10.39584 22.1869847,11.8630835 C21.9837437,13.1841445 21.9113544,13.7841278 21.8862981,14.0458454 C20.5763559,15.4281662 18.5578803,17.8044722 16.9751731,20.764119 C17.4707402,16.567158 18.3198969,12.6093208 18.7597992,11.0195575 L18.7597101,11.0194862 Z M15.0916011,25.5151629 C15.0122519,25.8255927 14.941256,26.1388092 14.8786134,26.4548018 C14.0225075,22.6487779 13.4350328,18.785735 13.5227352,17.0152924 C13.6118276,15.2028339 14.8563403,14.9592198 15.2363725,14.9285721 C15.7973691,14.8826325 16.1008531,14.9494518 16.3194144,15.0608172 C15.7542484,18.0871763 15.1918264,21.9807958 15.0888357,25.4692947 C15.0874423,25.4859977 15.0902255,25.499921 15.0916189,25.5152342 L15.0916011,25.5151629 Z M33.3067004,35.9585646 C30.9833509,39.6405717 27.6814114,40.1612272 25.3218904,39.9495442 C22.9595541,39.7379499 19.6281784,38.9931916 17.5359344,35.072987 C17.523408,35.0173043 17.5053116,34.963015 17.4788583,34.9101155 C17.1600753,34.2641962 16.832939,33.4247684 16.5085717,32.4600767 C14.4037834,24.5002126 21.2151407,16.8468259 23.5190717,14.5428986 C24.4044355,13.6589246 25.1923323,13.2148528 25.8744588,13.2148528 C26.2127316,13.2148528 26.5245476,13.323435 26.8085383,13.5405957 C27.1551644,13.8064793 28.2103525,14.6138731 26.8683976,16.3887702 C25.6712107,17.9743284 24.8248336,19.4360127 24.4837882,20.0526028 C22.5919663,20.492505 20.5441223,21.698031 18.8584992,24.4391522 C18.6385516,24.7955215 18.749917,25.2632562 19.1076797,25.4818175 C19.464049,25.701765 19.9317837,25.5903996 20.150345,25.2326369 C22.9692972,20.6486589 26.8572148,21.092695 28.9230875,21.7649857 C29.9518187,22.0990819 30.4126041,23.0498751 30.4126041,23.8433313 C30.4126041,24.4279908 30.1829135,24.9806482 29.765295,25.3996672 C29.1834152,25.9801571 28.3203245,26.1945489 27.5672093,25.9481552 C26.1528509,25.48459 24.4475883,25.9773882 23.2212859,27.2037867 C21.4575431,28.9689194 21.2069799,31.6042345 22.6533046,33.2036199 C23.5539567,34.2003491 24.9237689,34.8170105 26.3142862,34.8518278 C27.4196011,34.8768841 28.3842928,34.5413981 29.0260426,33.8996447 C30.5768191,32.3488681 30.7786667,30.1549163 30.2914386,28.6681437 C30.0436515,27.9136387 30.258029,27.0519377 30.8385367,26.4728377 C31.2561659,26.0552085 31.8102132,25.8255285 32.3976523,25.8255285 C33.3651236,25.8255285 34.1808885,26.4087981 34.4746081,27.3122655 C35.276439,29.7887469 34.754415,33.665617 33.3066791,35.9584969 L33.3067004,35.9585646 Z M28.847808,29.1444277 C29.1902575,30.1898726 29.0468723,31.7350541 27.9513255,32.8307115 C27.6116592,33.1703742 27.03118,33.3555365 26.3504434,33.3388228 C25.3662584,33.3137665 24.4043464,32.8836323 23.776495,32.1889617 C22.7811556,31.0878519 23.2697735,29.3018003 24.2915555,28.2785216 C24.9249307,27.6451465 25.7198123,27.2929467 26.4506544,27.2929467 C26.6719918,27.2929467 26.8891668,27.3249629 27.0924042,27.3917822 C27.620009,27.5644003 28.1670714,27.6117297 28.6974558,27.5407338 C28.6264599,28.0711182 28.6737929,28.6181807 28.8477973,29.1443956 L28.847808,29.1444277 Z" id="Fill-1"></path>
            </g>
        </g>
    </g>
</svg>